<svg width="20" height="20" viewBox="0 0 20 20" fill="none" xmlns="http://www.w3.org/2000/svg">
<mask id="mask0_84_3939" style="mask-type:alpha" maskUnits="userSpaceOnUse" x="0" y="0" width="20" height="20">
<rect width="20" height="20" fill="#D9D9D9"/>
</mask>
<g mask="url(#mask0_84_3939)">
<path d="M12.5002 16.6666C10.6391 16.6666 9.06266 16.0208 7.771 14.7291C6.47933 13.4375 5.8335 11.8611 5.8335 9.99998C5.8335 8.15276 6.47933 6.57984 7.771 5.28123C9.06266 3.98262 10.6391 3.33331 12.5002 3.33331C14.3474 3.33331 15.9203 3.98262 17.2189 5.28123C18.5175 6.57984 19.1668 8.15276 19.1668 9.99998C19.1668 11.8611 18.5175 13.4375 17.2189 14.7291C15.9203 16.0208 14.3474 16.6666 12.5002 16.6666ZM12.5002 15C13.8891 15 15.0696 14.5139 16.0418 13.5416C17.0141 12.5694 17.5002 11.3889 17.5002 9.99998C17.5002 8.61109 17.0141 7.43054 16.0418 6.45831C15.0696 5.48609 13.8891 4.99998 12.5002 4.99998C11.1113 4.99998 9.93072 5.48609 8.9585 6.45831C7.98627 7.43054 7.50016 8.61109 7.50016 9.99998C7.50016 11.3889 7.98627 12.5694 8.9585 13.5416C9.93072 14.5139 11.1113 15 12.5002 15ZM14.396 13.1041L15.5835 11.9166L13.3335 9.66665V6.66665H11.6668V10.3541L14.396 13.1041ZM1.66683 7.49998V5.83331H5.00016V7.49998H1.66683ZM0.833496 10.8333V9.16665H5.00016V10.8333H0.833496ZM1.66683 14.1666V12.5H5.00016V14.1666H1.66683Z" fill="#021742"/>
</g>
</svg>
