<svg width="50" height="50" viewBox="0 0 50 50" fill="none" xmlns="http://www.w3.org/2000/svg">
<mask id="mask0_42_2103" style="mask-type:alpha" maskUnits="userSpaceOnUse" x="0" y="0" width="50" height="50">
<rect width="50" height="50" fill="#D9D9D9"/>
</mask>
<g mask="url(#mask0_42_2103)">
<path d="M22.75 35.4166H26.9167V27.0833H35.25V22.9166H26.9167V14.5833H22.75V22.9166H14.4167V27.0833H22.75V35.4166ZM24.8333 45.8333C21.9514 45.8333 19.2431 45.2864 16.7083 44.1927C14.1736 43.0989 11.9688 41.6145 10.0938 39.7395C8.21875 37.8645 6.73438 35.6597 5.64063 33.125C4.54688 30.5902 4 27.8819 4 25C4 22.118 4.54688 19.4097 5.64063 16.875C6.73438 14.3402 8.21875 12.1354 10.0938 10.2604C11.9688 8.38538 14.1736 6.901 16.7083 5.80725C19.2431 4.7135 21.9514 4.16663 24.8333 4.16663C27.7153 4.16663 30.4236 4.7135 32.9583 5.80725C35.4931 6.901 37.6979 8.38538 39.5729 10.2604C41.4479 12.1354 42.9323 14.3402 44.026 16.875C45.1198 19.4097 45.6667 22.118 45.6667 25C45.6667 27.8819 45.1198 30.5902 44.026 33.125C42.9323 35.6597 41.4479 37.8645 39.5729 39.7395C37.6979 41.6145 35.4931 43.0989 32.9583 44.1927C30.4236 45.2864 27.7153 45.8333 24.8333 45.8333ZM24.8333 41.6666C29.4861 41.6666 33.4271 40.052 36.6563 36.8229C39.8854 33.5937 41.5 29.6527 41.5 25C41.5 20.3472 39.8854 16.4062 36.6563 13.177C33.4271 9.94788 29.4861 8.33329 24.8333 8.33329C20.1806 8.33329 16.2396 9.94788 13.0104 13.177C9.78125 16.4062 8.16667 20.3472 8.16667 25C8.16667 29.6527 9.78125 33.5937 13.0104 36.8229C16.2396 40.052 20.1806 41.6666 24.8333 41.6666Z" fill="url(#paint0_linear_42_2103)"/>
</g>
<defs>
<linearGradient id="paint0_linear_42_2103" x1="24.8333" y1="4.16663" x2="24.8333" y2="45.8333" gradientUnits="userSpaceOnUse">
<stop stop-color="#FFBF65"/>
<stop offset="1" stop-color="#F98428"/>
</linearGradient>
</defs>
</svg>
