<svg width="20" height="20" viewBox="0 0 20 20" fill="none" xmlns="http://www.w3.org/2000/svg">
<mask id="mask0_84_3952" style="mask-type:alpha" maskUnits="userSpaceOnUse" x="0" y="0" width="20" height="20">
<rect width="20" height="20" fill="#D9D9D9"/>
</mask>
<g mask="url(#mask0_84_3952)">
<path d="M10 17.5C8.97222 17.5 8.00347 17.3021 7.09375 16.9062C6.18403 16.5104 5.38889 15.9722 4.70833 15.2917C4.02778 14.6111 3.48958 13.816 3.09375 12.9062C2.69792 11.9965 2.5 11.0278 2.5 10C2.5 9.38889 2.56944 8.79514 2.70833 8.21875C2.84722 7.64236 3.04861 7.10069 3.3125 6.59375C3.57639 6.08681 3.89236 5.61458 4.26042 5.17708C4.62847 4.73958 5.04167 4.34722 5.5 4L11.1667 9.66667L10 10.8333L5.5 6.33333C5.08333 6.83333 4.75694 7.39236 4.52083 8.01042C4.28472 8.62847 4.16667 9.29167 4.16667 10C4.16667 11.6111 4.73611 12.9861 5.875 14.125C7.01389 15.2639 8.38889 15.8333 10 15.8333C11.6111 15.8333 12.9861 15.2639 14.125 14.125C15.2639 12.9861 15.8333 11.6111 15.8333 10C15.8333 8.51389 15.3576 7.23264 14.4062 6.15625C13.4549 5.07986 12.2639 4.44444 10.8333 4.25V5.83333H9.16667V2.5H10C11.0278 2.5 11.9965 2.69792 12.9062 3.09375C13.816 3.48958 14.6111 4.02778 15.2917 4.70833C15.9722 5.38889 16.5104 6.18403 16.9062 7.09375C17.3021 8.00347 17.5 8.97222 17.5 10C17.5 11.0278 17.3021 11.9965 16.9062 12.9062C16.5104 13.816 15.9722 14.6111 15.2917 15.2917C14.6111 15.9722 13.816 16.5104 12.9062 16.9062C11.9965 17.3021 11.0278 17.5 10 17.5ZM10 15C9.76389 15 9.56597 14.9201 9.40625 14.7604C9.24653 14.6007 9.16667 14.4028 9.16667 14.1667C9.16667 13.9306 9.24653 13.7326 9.40625 13.5729C9.56597 13.4132 9.76389 13.3333 10 13.3333C10.2361 13.3333 10.434 13.4132 10.5938 13.5729C10.7535 13.7326 10.8333 13.9306 10.8333 14.1667C10.8333 14.4028 10.7535 14.6007 10.5938 14.7604C10.434 14.9201 10.2361 15 10 15ZM14.1667 10.8333C13.9306 10.8333 13.7326 10.7535 13.5729 10.5938C13.4132 10.434 13.3333 10.2361 13.3333 10C13.3333 9.76389 13.4132 9.56597 13.5729 9.40625C13.7326 9.24653 13.9306 9.16667 14.1667 9.16667C14.4028 9.16667 14.6007 9.24653 14.7604 9.40625C14.9201 9.56597 15 9.76389 15 10C15 10.2361 14.9201 10.434 14.7604 10.5938C14.6007 10.7535 14.4028 10.8333 14.1667 10.8333ZM5.83333 10.8333C5.59722 10.8333 5.39931 10.7535 5.23958 10.5938C5.07986 10.434 5 10.2361 5 10C5 9.76389 5.07986 9.56597 5.23958 9.40625C5.39931 9.24653 5.59722 9.16667 5.83333 9.16667C6.06944 9.16667 6.26736 9.24653 6.42708 9.40625C6.58681 9.56597 6.66667 9.76389 6.66667 10C6.66667 10.2361 6.58681 10.434 6.42708 10.5938C6.26736 10.7535 6.06944 10.8333 5.83333 10.8333Z" fill="#021742"/>
</g>
</svg>
