<svg width="20" height="20" viewBox="0 0 20 20" fill="none" xmlns="http://www.w3.org/2000/svg">
<mask id="mask0_84_3912" style="mask-type:alpha" maskUnits="userSpaceOnUse" x="0" y="0" width="20" height="20">
<rect width="20" height="20" fill="#D9D9D9"/>
</mask>
<g mask="url(#mask0_84_3912)">
<path d="M6.66683 16.6667H13.3335V14.1667C13.3335 13.25 13.0071 12.4653 12.3543 11.8125C11.7016 11.1597 10.9168 10.8334 10.0002 10.8334C9.0835 10.8334 8.29877 11.1597 7.646 11.8125C6.99322 12.4653 6.66683 13.25 6.66683 14.1667V16.6667ZM10.0002 9.16669C10.9168 9.16669 11.7016 8.8403 12.3543 8.18752C13.0071 7.53474 13.3335 6.75002 13.3335 5.83335V3.33335H6.66683V5.83335C6.66683 6.75002 6.99322 7.53474 7.646 8.18752C8.29877 8.8403 9.0835 9.16669 10.0002 9.16669ZM3.3335 18.3334V16.6667H5.00016V14.1667C5.00016 13.3195 5.19808 12.5243 5.59391 11.7813C5.98975 11.0382 6.54183 10.4445 7.25016 10C6.54183 9.55558 5.98975 8.96183 5.59391 8.21877C5.19808 7.47571 5.00016 6.68058 5.00016 5.83335V3.33335H3.3335V1.66669H16.6668V3.33335H15.0002V5.83335C15.0002 6.68058 14.8022 7.47571 14.4064 8.21877C14.0106 8.96183 13.4585 9.55558 12.7502 10C13.4585 10.4445 14.0106 11.0382 14.4064 11.7813C14.8022 12.5243 15.0002 13.3195 15.0002 14.1667V16.6667H16.6668V18.3334H3.3335Z" fill="#021742"/>
</g>
</svg>
