<svg width="22" height="20" viewBox="0 0 22 20" fill="none" xmlns="http://www.w3.org/2000/svg">
<mask id="mask0_84_4173" style="mask-type:alpha" maskUnits="userSpaceOnUse" x="0" y="0" width="22" height="20">
<rect x="0.378418" width="21.0811" height="20" fill="#D9D9D9"/>
</mask>
<g mask="url(#mask0_84_4173)">
<path d="M5.64885 18.3333C5.16574 18.3333 4.75217 18.1701 4.40814 17.8437C4.06411 17.5173 3.89209 17.125 3.89209 16.6666V8.33331C3.89209 7.87498 4.06411 7.48262 4.40814 7.15623C4.75217 6.82984 5.16574 6.66665 5.64885 6.66665H6.52723V4.99998C6.52723 3.8472 6.95543 2.86456 7.81185 2.05206C8.66827 1.23956 9.70403 0.833313 10.9191 0.833313C12.1342 0.833313 13.17 1.23956 14.0264 2.05206C14.8828 2.86456 15.311 3.8472 15.311 4.99998V6.66665H16.1894C16.6725 6.66665 17.0861 6.82984 17.4301 7.15623C17.7741 7.48262 17.9461 7.87498 17.9461 8.33331V16.6666C17.9461 17.125 17.7741 17.5173 17.4301 17.8437C17.0861 18.1701 16.6725 18.3333 16.1894 18.3333H5.64885ZM5.64885 16.6666H16.1894V8.33331H5.64885V16.6666ZM10.9191 14.1666C11.4022 14.1666 11.8158 14.0035 12.1598 13.6771C12.5039 13.3507 12.6759 12.9583 12.6759 12.5C12.6759 12.0416 12.5039 11.6493 12.1598 11.3229C11.8158 10.9965 11.4022 10.8333 10.9191 10.8333C10.436 10.8333 10.0224 10.9965 9.67841 11.3229C9.33438 11.6493 9.16236 12.0416 9.16236 12.5C9.16236 12.9583 9.33438 13.3507 9.67841 13.6771C10.0224 14.0035 10.436 14.1666 10.9191 14.1666ZM8.28398 6.66665H13.5543V4.99998C13.5543 4.30554 13.2981 3.71526 12.7857 3.22915C12.2733 2.74304 11.6511 2.49998 10.9191 2.49998C10.1871 2.49998 9.56495 2.74304 9.05256 3.22915C8.54018 3.71526 8.28398 4.30554 8.28398 4.99998V6.66665Z" fill="#021742"/>
</g>
</svg>
