<svg width="20" height="20" viewBox="0 0 20 20" fill="none" xmlns="http://www.w3.org/2000/svg">
<mask id="mask0_23_28" style="mask-type:alpha" maskUnits="userSpaceOnUse" x="0" y="0" width="20" height="20">
<rect width="20" height="20" fill="#D9D9D9"/>
</mask>
<g mask="url(#mask0_23_28)">
<path d="M4.99992 18.3333C4.54159 18.3333 4.14922 18.1701 3.82284 17.8438C3.49645 17.5174 3.33325 17.125 3.33325 16.6667V8.33334C3.33325 7.875 3.49645 7.48264 3.82284 7.15625C4.14922 6.82986 4.54159 6.66667 4.99992 6.66667H5.83325V5C5.83325 3.84722 6.2395 2.86459 7.052 2.05209C7.8645 1.23959 8.84714 0.833336 9.99992 0.833336C11.1527 0.833336 12.1353 1.23959 12.9478 2.05209C13.7603 2.86459 14.1666 3.84722 14.1666 5V6.66667H14.9999C15.4583 6.66667 15.8506 6.82986 16.177 7.15625C16.5034 7.48264 16.6666 7.875 16.6666 8.33334V16.6667C16.6666 17.125 16.5034 17.5174 16.177 17.8438C15.8506 18.1701 15.4583 18.3333 14.9999 18.3333H4.99992ZM4.99992 16.6667H14.9999V8.33334H4.99992V16.6667ZM9.99992 14.1667C10.4583 14.1667 10.8506 14.0035 11.177 13.6771C11.5034 13.3507 11.6666 12.9583 11.6666 12.5C11.6666 12.0417 11.5034 11.6493 11.177 11.3229C10.8506 10.9965 10.4583 10.8333 9.99992 10.8333C9.54158 10.8333 9.14922 10.9965 8.82284 11.3229C8.49645 11.6493 8.33325 12.0417 8.33325 12.5C8.33325 12.9583 8.49645 13.3507 8.82284 13.6771C9.14922 14.0035 9.54158 14.1667 9.99992 14.1667ZM7.49992 6.66667H12.4999V5C12.4999 4.30556 12.2569 3.71528 11.7708 3.22917C11.2846 2.74306 10.6944 2.5 9.99992 2.5C9.30547 2.5 8.7152 2.74306 8.22908 3.22917C7.74297 3.71528 7.49992 4.30556 7.49992 5V6.66667Z" fill="white"/>
</g>
</svg>
