<svg width="20" height="20" viewBox="0 0 20 20" fill="none" xmlns="http://www.w3.org/2000/svg">
<mask id="mask0_23_34" style="mask-type:alpha" maskUnits="userSpaceOnUse" x="0" y="0" width="20" height="20">
<rect width="20" height="20" fill="#D9D9D9"/>
</mask>
<g mask="url(#mask0_23_34)">
<path d="M3.33341 16.6667C2.87508 16.6667 2.48272 16.5035 2.15633 16.1771C1.82994 15.8507 1.66675 15.4583 1.66675 15V5C1.66675 4.54167 1.82994 4.14931 2.15633 3.82292C2.48272 3.49653 2.87508 3.33334 3.33341 3.33334H16.6667C17.1251 3.33334 17.5174 3.49653 17.8438 3.82292C18.1702 4.14931 18.3334 4.54167 18.3334 5V8.3125H17.5001L16.6667 8.33334V6.66667L10.0001 10.8333L3.33341 6.66667V15H13.3334V16.6667H3.33341ZM10.0001 9.16667L16.6667 5H3.33341L10.0001 9.16667ZM15.8334 16.6667C15.5973 16.6667 15.3994 16.5868 15.2397 16.4271C15.0799 16.2674 15.0001 16.0694 15.0001 15.8333V13.3333C15.0001 13.0972 15.0799 12.8993 15.2397 12.7396C15.3994 12.5799 15.5973 12.5 15.8334 12.5V11.6667C15.8334 11.2083 15.9966 10.816 16.323 10.4896C16.6494 10.1632 17.0417 10 17.5001 10C17.9584 10 18.3508 10.1632 18.6772 10.4896C19.0036 10.816 19.1667 11.2083 19.1667 11.6667V12.5C19.4029 12.5 19.6008 12.5799 19.7605 12.7396C19.9202 12.8993 20.0001 13.0972 20.0001 13.3333V15.8333C20.0001 16.0694 19.9202 16.2674 19.7605 16.4271C19.6008 16.5868 19.4029 16.6667 19.1667 16.6667H15.8334ZM16.6667 12.5H18.3334V11.6667C18.3334 11.4306 18.2536 11.2326 18.0938 11.0729C17.9341 10.9132 17.7362 10.8333 17.5001 10.8333C17.264 10.8333 17.0661 10.9132 16.9063 11.0729C16.7466 11.2326 16.6667 11.4306 16.6667 11.6667V12.5Z" fill="white"/>
</g>
</svg>
