<svg width="22" height="20" viewBox="0 0 22 20" fill="none" xmlns="http://www.w3.org/2000/svg">
<mask id="mask0_84_4167" style="mask-type:alpha" maskUnits="userSpaceOnUse" x="0" y="0" width="22" height="20">
<rect x="0.378418" width="21.0811" height="20" fill="#D9D9D9"/>
</mask>
<g mask="url(#mask0_84_4167)">
<path d="M3.89201 16.6666C3.4089 16.6666 2.99533 16.5035 2.6513 16.1771C2.30727 15.8507 2.13525 15.4583 2.13525 15V4.99998C2.13525 4.54165 2.30727 4.14929 2.6513 3.8229C2.99533 3.49651 3.4089 3.33331 3.89201 3.33331H17.9461C18.4292 3.33331 18.8427 3.49651 19.1868 3.8229C19.5308 4.14929 19.7028 4.54165 19.7028 4.99998V15C19.7028 15.4583 19.5308 15.8507 19.1868 16.1771C18.8427 16.5035 18.4292 16.6666 17.9461 16.6666H3.89201ZM10.919 10.8333L3.89201 6.66665V15H17.9461V6.66665L10.919 10.8333ZM10.919 9.16665L17.9461 4.99998H3.89201L10.919 9.16665ZM3.89201 6.66665V4.99998V15V6.66665Z" fill="#021742"/>
</g>
</svg>
