<svg width="20" height="20" viewBox="0 0 20 20" fill="none" xmlns="http://www.w3.org/2000/svg">
<mask id="mask0_84_3945" style="mask-type:alpha" maskUnits="userSpaceOnUse" x="0" y="0" width="20" height="20">
<rect width="20" height="20" fill="#D9D9D9"/>
</mask>
<g mask="url(#mask0_84_3945)">
<path d="M7.16683 18.75L5.5835 16.0833L2.5835 15.4167L2.87516 12.3333L0.833496 10L2.87516 7.66667L2.5835 4.58333L5.5835 3.91667L7.16683 1.25L10.0002 2.45833L12.8335 1.25L14.4168 3.91667L17.4168 4.58333L17.1252 7.66667L19.1668 10L17.1252 12.3333L17.4168 15.4167L14.4168 16.0833L12.8335 18.75L10.0002 17.5417L7.16683 18.75ZM7.87516 16.625L10.0002 15.7083L12.1668 16.625L13.3335 14.625L15.6252 14.0833L15.4168 11.75L16.9585 10L15.4168 8.20833L15.6252 5.875L13.3335 5.375L12.1252 3.375L10.0002 4.29167L7.8335 3.375L6.66683 5.375L4.37516 5.875L4.5835 8.20833L3.04183 10L4.5835 11.75L4.37516 14.125L6.66683 14.625L7.87516 16.625ZM9.12516 12.9583L13.8335 8.25L12.6668 7.04167L9.12516 10.5833L7.3335 8.83333L6.16683 10L9.12516 12.9583Z" fill="#021742"/>
</g>
</svg>
