<svg width="22" height="20" viewBox="0 0 22 20" fill="none" xmlns="http://www.w3.org/2000/svg">
<mask id="mask0_84_4155" style="mask-type:alpha" maskUnits="userSpaceOnUse" x="0" y="0" width="22" height="20">
<rect x="0.378418" width="21.0811" height="20" fill="#D9D9D9"/>
</mask>
<g mask="url(#mask0_84_4155)">
<path d="M10.9191 9.99998C9.9529 9.99998 9.12576 9.67359 8.4377 9.02081C7.74963 8.36804 7.4056 7.58331 7.4056 6.66665C7.4056 5.74998 7.74963 4.96526 8.4377 4.31248C9.12576 3.6597 9.9529 3.33331 10.9191 3.33331C11.8853 3.33331 12.7125 3.6597 13.4005 4.31248C14.0886 4.96526 14.4326 5.74998 14.4326 6.66665C14.4326 7.58331 14.0886 8.36804 13.4005 9.02081C12.7125 9.67359 11.8853 9.99998 10.9191 9.99998ZM3.89209 16.6666V14.3333C3.89209 13.8611 4.02019 13.4271 4.27638 13.0312C4.53257 12.6354 4.87295 12.3333 5.2975 12.125C6.20515 11.6944 7.12745 11.3715 8.06439 11.1562C9.00132 10.941 9.9529 10.8333 10.9191 10.8333C11.8853 10.8333 12.8369 10.941 13.7738 11.1562C14.7108 11.3715 15.6331 11.6944 16.5407 12.125C16.9653 12.3333 17.3057 12.6354 17.5619 13.0312C17.818 13.4271 17.9461 13.8611 17.9461 14.3333V16.6666H3.89209ZM5.64885 15H16.1894V14.3333C16.1894 14.1805 16.1491 14.0416 16.0686 13.9166C15.9881 13.7916 15.882 13.6944 15.7502 13.625C14.9597 13.25 14.1618 12.9687 13.3566 12.7812C12.5514 12.5937 11.7389 12.5 10.9191 12.5C10.0993 12.5 9.2868 12.5937 8.48162 12.7812C7.67644 12.9687 6.87858 13.25 6.08804 13.625C5.95628 13.6944 5.85014 13.7916 5.76962 13.9166C5.68911 14.0416 5.64885 14.1805 5.64885 14.3333V15ZM10.9191 8.33331C11.4022 8.33331 11.8158 8.17012 12.1598 7.84373C12.5039 7.51734 12.6759 7.12498 12.6759 6.66665C12.6759 6.20831 12.5039 5.81595 12.1598 5.48956C11.8158 5.16317 11.4022 4.99998 10.9191 4.99998C10.436 4.99998 10.0224 5.16317 9.67841 5.48956C9.33438 5.81595 9.16236 6.20831 9.16236 6.66665C9.16236 7.12498 9.33438 7.51734 9.67841 7.84373C10.0224 8.17012 10.436 8.33331 10.9191 8.33331Z" fill="#021742"/>
</g>
</svg>
