<svg width="22" height="20" viewBox="0 0 22 20" fill="none" xmlns="http://www.w3.org/2000/svg">
<mask id="mask0_84_4161" style="mask-type:alpha" maskUnits="userSpaceOnUse" x="0" y="0" width="22" height="20">
<rect x="0.378418" width="21.0811" height="20" fill="#D9D9D9"/>
</mask>
<g mask="url(#mask0_84_4161)">
<path d="M17.0677 10C17.0677 8.375 16.4712 6.99653 15.278 5.86458C14.0849 4.73264 12.6319 4.16667 10.9191 4.16667V2.5C12.0171 2.5 13.0455 2.69792 14.0044 3.09375C14.9633 3.48958 15.7977 4.02431 16.5078 4.69792C17.2178 5.37153 17.7814 6.16319 18.1986 7.07292C18.6159 7.98264 18.8245 8.95833 18.8245 10H17.0677ZM13.5542 10C13.5542 9.30556 13.298 8.71528 12.7856 8.22917C12.2732 7.74306 11.6511 7.5 10.9191 7.5V5.83333C12.1342 5.83333 13.1699 6.23958 14.0263 7.05208C14.8828 7.86458 15.311 8.84722 15.311 10H13.5542ZM17.9022 17.5C16.0722 17.5 14.2642 17.1215 12.4782 16.3646C10.6922 15.6076 9.06716 14.5347 7.6032 13.1458C6.13924 11.7569 5.00832 10.2153 4.21046 8.52083C3.4126 6.82639 3.01367 5.11111 3.01367 3.375C3.01367 3.125 3.10151 2.91667 3.27719 2.75C3.45286 2.58333 3.67246 2.5 3.93597 2.5H7.4934C7.69836 2.5 7.88135 2.56597 8.04239 2.69792C8.20342 2.82986 8.29858 2.98611 8.32786 3.16667L8.89881 6.08333C8.92809 6.30556 8.92077 6.49306 8.87685 6.64583C8.83293 6.79861 8.75241 6.93056 8.63529 7.04167L6.50523 9.08333C6.79802 9.59722 7.14571 10.0938 7.5483 10.5729C7.95089 11.0521 8.39374 11.5139 8.87685 11.9583C9.33068 12.3889 9.80647 12.7882 10.3042 13.1562C10.802 13.5243 11.329 13.8611 11.8853 14.1667L13.9495 12.2083C14.0812 12.0833 14.2533 11.9896 14.4655 11.9271C14.6778 11.8646 14.8864 11.8472 15.0914 11.875L18.1218 12.4583C18.3267 12.5139 18.4951 12.6146 18.6268 12.7604C18.7586 12.9062 18.8245 13.0694 18.8245 13.25V16.625C18.8245 16.875 18.7366 17.0833 18.561 17.25C18.3853 17.4167 18.1657 17.5 17.9022 17.5ZM5.67077 7.5L7.12009 6.125L6.74678 4.16667H4.79239C4.86559 4.73611 4.96806 5.29861 5.09982 5.85417C5.23158 6.40972 5.42189 6.95833 5.67077 7.5ZM13.5323 14.9583C14.1032 15.1944 14.6851 15.3819 15.278 15.5208C15.8709 15.6597 16.4675 15.75 17.0677 15.7917V13.9583L15.0035 13.5625L13.5323 14.9583Z" fill="#021742"/>
</g>
</svg>
