<svg width="20" height="20" viewBox="0 0 20 20" fill="none" xmlns="http://www.w3.org/2000/svg">
<mask id="mask0_84_3921" style="mask-type:alpha" maskUnits="userSpaceOnUse" x="0" y="0" width="20" height="20">
<rect width="20" height="20" fill="#D9D9D9"/>
</mask>
<g mask="url(#mask0_84_3921)">
<path d="M7.49984 14.1666C7.73595 14.1666 7.93387 14.0868 8.09359 13.927C8.25331 13.7673 8.33317 13.5694 8.33317 13.3333C8.33317 13.0972 8.25331 12.8993 8.09359 12.7395C7.93387 12.5798 7.73595 12.5 7.49984 12.5C7.26373 12.5 7.06581 12.5798 6.90609 12.7395C6.74636 12.8993 6.6665 13.0972 6.6665 13.3333C6.6665 13.5694 6.74636 13.7673 6.90609 13.927C7.06581 14.0868 7.26373 14.1666 7.49984 14.1666ZM9.99984 14.1666C10.2359 14.1666 10.4339 14.0868 10.5936 13.927C10.7533 13.7673 10.8332 13.5694 10.8332 13.3333C10.8332 13.0972 10.7533 12.8993 10.5936 12.7395C10.4339 12.5798 10.2359 12.5 9.99984 12.5C9.76373 12.5 9.56581 12.5798 9.40609 12.7395C9.24637 12.8993 9.1665 13.0972 9.1665 13.3333C9.1665 13.5694 9.24637 13.7673 9.40609 13.927C9.56581 14.0868 9.76373 14.1666 9.99984 14.1666ZM12.4998 14.1666C12.7359 14.1666 12.9339 14.0868 13.0936 13.927C13.2533 13.7673 13.3332 13.5694 13.3332 13.3333C13.3332 13.0972 13.2533 12.8993 13.0936 12.7395C12.9339 12.5798 12.7359 12.5 12.4998 12.5C12.2637 12.5 12.0658 12.5798 11.9061 12.7395C11.7464 12.8993 11.6665 13.0972 11.6665 13.3333C11.6665 13.5694 11.7464 13.7673 11.9061 13.927C12.0658 14.0868 12.2637 14.1666 12.4998 14.1666ZM9.12484 11.6666L13.8123 6.95829L12.6457 5.77079L9.104 9.31246L7.33317 7.54163L6.1665 8.70829L9.12484 11.6666ZM9.99984 18.3333C8.84706 18.3333 7.76373 18.1145 6.74984 17.677C5.73595 17.2395 4.854 16.6458 4.104 15.8958C3.354 15.1458 2.76025 14.2638 2.32275 13.25C1.88525 12.2361 1.6665 11.1527 1.6665 9.99996C1.6665 8.84718 1.88525 7.76385 2.32275 6.74996C2.76025 5.73607 3.354 4.85413 4.104 4.10413C4.854 3.35413 5.73595 2.76038 6.74984 2.32288C7.76373 1.88538 8.84706 1.66663 9.99984 1.66663C11.1526 1.66663 12.2359 1.88538 13.2498 2.32288C14.2637 2.76038 15.1457 3.35413 15.8957 4.10413C16.6457 4.85413 17.2394 5.73607 17.6769 6.74996C18.1144 7.76385 18.3332 8.84718 18.3332 9.99996C18.3332 11.1527 18.1144 12.2361 17.6769 13.25C17.2394 14.2638 16.6457 15.1458 15.8957 15.8958C15.1457 16.6458 14.2637 17.2395 13.2498 17.677C12.2359 18.1145 11.1526 18.3333 9.99984 18.3333ZM9.99984 16.6666C11.8609 16.6666 13.4373 16.0208 14.729 14.7291C16.0207 13.4375 16.6665 11.8611 16.6665 9.99996C16.6665 8.13885 16.0207 6.56246 14.729 5.27079C13.4373 3.97913 11.8609 3.33329 9.99984 3.33329C8.13873 3.33329 6.56234 3.97913 5.27067 5.27079C3.979 6.56246 3.33317 8.13885 3.33317 9.99996C3.33317 11.8611 3.979 13.4375 5.27067 14.7291C6.56234 16.0208 8.13873 16.6666 9.99984 16.6666Z" fill="#021742"/>
</g>
</svg>
