<svg width="20" height="20" viewBox="0 0 20 20" fill="none" xmlns="http://www.w3.org/2000/svg">
<mask id="mask0_91_4240" style="mask-type:alpha" maskUnits="userSpaceOnUse" x="0" y="0" width="20" height="20">
<rect width="20" height="20" fill="#D9D9D9"/>
</mask>
<g mask="url(#mask0_91_4240)">
<path d="M3.37484 9.16669H5.74984C5.6665 8.63891 5.50678 8.14585 5.27067 7.68752C5.03456 7.22919 4.73595 6.81946 4.37484 6.45835C4.12484 6.86113 3.91303 7.28821 3.73942 7.7396C3.56581 8.19099 3.44428 8.66669 3.37484 9.16669ZM14.2498 9.16669H16.6248C16.5554 8.66669 16.4339 8.19099 16.2603 7.7396C16.0866 7.28821 15.8748 6.86113 15.6248 6.45835C15.2637 6.81946 14.9651 7.22919 14.729 7.68752C14.4929 8.14585 14.3332 8.63891 14.2498 9.16669ZM4.37484 13.5417C4.73595 13.1806 5.03456 12.7709 5.27067 12.3125C5.50678 11.8542 5.6665 11.3611 5.74984 10.8334H3.37484C3.44428 11.3334 3.56581 11.809 3.73942 12.2604C3.91303 12.7118 4.12484 13.1389 4.37484 13.5417ZM15.6248 13.5417C15.8748 13.1389 16.0866 12.7118 16.2603 12.2604C16.4339 11.809 16.5554 11.3334 16.6248 10.8334H14.2498C14.3332 11.3611 14.4929 11.8542 14.729 12.3125C14.9651 12.7709 15.2637 13.1806 15.6248 13.5417ZM7.45817 9.16669H9.1665V3.37502C8.43039 3.48613 7.74637 3.69099 7.11442 3.9896C6.48248 4.28821 5.9165 4.68058 5.4165 5.16669C5.95817 5.69447 6.40609 6.29516 6.76025 6.96877C7.11442 7.64238 7.34706 8.37502 7.45817 9.16669ZM10.8332 9.16669H12.5415C12.6526 8.37502 12.8853 7.64238 13.2394 6.96877C13.5936 6.29516 14.0415 5.69447 14.5832 5.16669C14.0832 4.68058 13.5172 4.28821 12.8853 3.9896C12.2533 3.69099 11.5693 3.48613 10.8332 3.37502V9.16669ZM9.1665 16.625V10.8334H7.45817C7.34706 11.625 7.11442 12.3577 6.76025 13.0313C6.40609 13.7049 5.95817 14.3056 5.4165 14.8334C5.9165 15.3195 6.48248 15.7118 7.11442 16.0104C7.74637 16.309 8.43039 16.5139 9.1665 16.625ZM10.8332 16.625C11.5693 16.5139 12.2533 16.309 12.8853 16.0104C13.5172 15.7118 14.0832 15.3195 14.5832 14.8334C14.0415 14.3056 13.5936 13.7049 13.2394 13.0313C12.8853 12.3577 12.6526 11.625 12.5415 10.8334H10.8332V16.625ZM9.99984 18.3334C8.84706 18.3334 7.76373 18.1146 6.74984 17.6771C5.73595 17.2396 4.854 16.6459 4.104 15.8959C3.354 15.1459 2.76025 14.2639 2.32275 13.25C1.88525 12.2361 1.6665 11.1528 1.6665 10C1.6665 8.84724 1.88525 7.76391 2.32275 6.75002C2.76025 5.73613 3.354 4.85419 4.104 4.10419C4.854 3.35419 5.73595 2.76044 6.74984 2.32294C7.76373 1.88544 8.84706 1.66669 9.99984 1.66669C11.1526 1.66669 12.2359 1.88544 13.2498 2.32294C14.2637 2.76044 15.1457 3.35419 15.8957 4.10419C16.6457 4.85419 17.2394 5.73613 17.6769 6.75002C18.1144 7.76391 18.3332 8.84724 18.3332 10C18.3332 11.1528 18.1144 12.2361 17.6769 13.25C17.2394 14.2639 16.6457 15.1459 15.8957 15.8959C15.1457 16.6459 14.2637 17.2396 13.2498 17.6771C12.2359 18.1146 11.1526 18.3334 9.99984 18.3334Z" fill="#021742"/>
</g>
</svg>
