<svg width="24" height="24" viewBox="0 0 24 24" fill="none" xmlns="http://www.w3.org/2000/svg">
<mask id="mask0_40_415" style="mask-type:alpha" maskUnits="userSpaceOnUse" x="0" y="0" width="24" height="24">
<rect width="24" height="24" fill="#D9D9D9"/>
</mask>
<g mask="url(#mask0_40_415)">
<path d="M4.05 11H6.9C6.8 10.3667 6.60833 9.775 6.325 9.225C6.04167 8.675 5.68333 8.18333 5.25 7.75C4.95 8.23333 4.69583 8.74583 4.4875 9.2875C4.27917 9.82917 4.13333 10.4 4.05 11ZM17.1 11H19.95C19.8667 10.4 19.7208 9.82917 19.5125 9.2875C19.3042 8.74583 19.05 8.23333 18.75 7.75C18.3167 8.18333 17.9583 8.675 17.675 9.225C17.3917 9.775 17.2 10.3667 17.1 11ZM5.25 16.25C5.68333 15.8167 6.04167 15.325 6.325 14.775C6.60833 14.225 6.8 13.6333 6.9 13H4.05C4.13333 13.6 4.27917 14.1708 4.4875 14.7125C4.69583 15.2542 4.95 15.7667 5.25 16.25ZM18.75 16.25C19.05 15.7667 19.3042 15.2542 19.5125 14.7125C19.7208 14.1708 19.8667 13.6 19.95 13H17.1C17.2 13.6333 17.3917 14.225 17.675 14.775C17.9583 15.325 18.3167 15.8167 18.75 16.25ZM8.95 11H11V4.05C10.1167 4.18333 9.29583 4.42917 8.5375 4.7875C7.77917 5.14583 7.1 5.61667 6.5 6.2C7.15 6.83333 7.6875 7.55417 8.1125 8.3625C8.5375 9.17083 8.81667 10.05 8.95 11ZM13 11H15.05C15.1833 10.05 15.4625 9.17083 15.8875 8.3625C16.3125 7.55417 16.85 6.83333 17.5 6.2C16.9 5.61667 16.2208 5.14583 15.4625 4.7875C14.7042 4.42917 13.8833 4.18333 13 4.05V11ZM11 19.95V13H8.95C8.81667 13.95 8.5375 14.8292 8.1125 15.6375C7.6875 16.4458 7.15 17.1667 6.5 17.8C7.1 18.3833 7.77917 18.8542 8.5375 19.2125C9.29583 19.5708 10.1167 19.8167 11 19.95ZM13 19.95C13.8833 19.8167 14.7042 19.5708 15.4625 19.2125C16.2208 18.8542 16.9 18.3833 17.5 17.8C16.85 17.1667 16.3125 16.4458 15.8875 15.6375C15.4625 14.8292 15.1833 13.95 15.05 13H13V19.95ZM12 22C10.6167 22 9.31667 21.7375 8.1 21.2125C6.88333 20.6875 5.825 19.975 4.925 19.075C4.025 18.175 3.3125 17.1167 2.7875 15.9C2.2625 14.6833 2 13.3833 2 12C2 10.6167 2.2625 9.31667 2.7875 8.1C3.3125 6.88333 4.025 5.825 4.925 4.925C5.825 4.025 6.88333 3.3125 8.1 2.7875C9.31667 2.2625 10.6167 2 12 2C13.3833 2 14.6833 2.2625 15.9 2.7875C17.1167 3.3125 18.175 4.025 19.075 4.925C19.975 5.825 20.6875 6.88333 21.2125 8.1C21.7375 9.31667 22 10.6167 22 12C22 13.3833 21.7375 14.6833 21.2125 15.9C20.6875 17.1167 19.975 18.175 19.075 19.075C18.175 19.975 17.1167 20.6875 15.9 21.2125C14.6833 21.7375 13.3833 22 12 22Z" fill="white"/>
</g>
</svg>
